<?xml version="1.0" encoding="UTF-8" standalone="no"?>
<!DOCTYPE svg PUBLIC "-//W3C//DTD SVG 1.1//EN" "http://www.w3.org/Graphics/SVG/1.1/DTD/svg11.dtd">
<!-- Created with Vectornator (http://vectornator.io/) -->
<svg height="100%" stroke-miterlimit="10" style="fill-rule:nonzero;clip-rule:evenodd;stroke-linecap:round;stroke-linejoin:round;" version="1.1" viewBox="0 0 64 64" width="100%" xml:space="preserve" xmlns="http://www.w3.org/2000/svg" xmlns:vectornator="http://vectornator.io" xmlns:xlink="http://www.w3.org/1999/xlink">
<defs/>
<g id="Layer-1" vectornator:layerName="Layer 1">
<g opacity="1">
<path d="M4.5 31.5C4.5 16.5883 16.5883 4.5 31.5 4.5C46.4117 4.5 58.5 16.5883 58.5 31.5C58.5 46.4117 46.4117 58.5 31.5 58.5C16.5883 58.5 4.5 46.4117 4.5 31.5Z" fill="none" opacity="1" stroke="#ffdfd3" stroke-linecap="butt" stroke-linejoin="round" stroke-width="7"/>
<g opacity="1">
<path d="M38.5812 18.6715C36.785 18.6715 35.1288 19.1041 33.6127 19.9693C32.0966 20.8345 30.7947 22.0251 29.707 23.5412L29.6576 22.948L29.3857 19.1659L22.9834 19.1659L22.9834 45.9121L29.8553 45.9121L29.8553 29.8446C30.1685 29.0866 30.564 28.4274 31.0419 27.8671C31.5198 27.3068 32.0966 26.8454 32.7722 26.4828C33.3325 26.1697 33.9711 25.9349 34.688 25.7783C35.4048 25.6218 36.2082 25.5435 37.0981 25.5435C37.955 25.5435 38.8573 25.597 39.8048 25.7042C40.7524 25.8113 41.6794 25.972 42.5858 26.1862L43.5992 19.339C43.0554 19.1742 42.3427 19.0217 41.461 18.8817C40.5794 18.7416 39.6194 18.6715 38.5812 18.6715Z" fill="#ffdfd3" fill-rule="nonzero" opacity="1" stroke="none"/>
</g>
</g>
</g>
</svg>
